<svg width="50" height="60" viewBox="0 0 50 60" fill="none" xmlns="http://www.w3.org/2000/svg">
<path fill-rule="evenodd" clip-rule="evenodd" d="M34.7275 0.75L32.3775 5.3975C36.99 7.9825 40 11.8575 40 17.4975H10C10 11.8575 13.01 7.9825 17.6225 5.3975L15.2725 0.75C15.1025 0.42 15.32 0 15.68 0C15.8475 0 16.0075 0.095 16.09 0.2625L18.465 4.9575C22.6775 2.9275 27.71 3.115 31.5375 4.9575L33.91 0.2625C33.995 0.095 34.155 0 34.32 0C34.68 0 34.8975 0.42 34.7275 0.75ZM7.5 23.6775C7.5 21.665 5.7625 20 3.75 20C1.7375 19.9975 0 21.6675 0 23.68V38.945C0 40.96 1.735 42.5 3.75 42.5C5.7625 42.5 7.5 40.9625 7.5 38.945V23.6775ZM46.25 20C48.2625 20 50 21.665 50 23.6775V38.945C50 40.9625 48.2625 42.5 46.25 42.5C44.235 42.5 42.5 40.96 42.5 38.945V23.68C42.5 21.6675 44.2375 19.9975 46.25 20ZM10.0025 43.61L10 20H40V43.605C40 45.7575 38.255 47.4975 36.11 47.4975L35 47.5V56.3525C35 58.365 33.2925 60 31.2775 60C29.2675 60 27.5 58.365 27.5 56.355V47.5H22.5V56.3525C22.5 58.365 20.79 60 18.775 60C16.7675 60 15 58.365 15 56.355V47.5H13.895C11.7425 47.5 10.0025 45.7625 10.0025 43.61ZM18.7525 12.5C18.0625 12.5 17.5 11.94 17.5 11.25C17.5 10.565 18.0625 10 18.7525 10C19.4425 10 20 10.565 20 11.25C20 11.94 19.4425 12.5 18.7525 12.5ZM30 11.25C30 11.94 30.5575 12.5 31.2475 12.5C31.9375 12.5 32.5 11.94 32.5 11.25C32.5 10.565 31.9375 10 31.2475 10C30.5575 10 30 10.565 30 11.25Z" fill="#9B9B9B"/>
</svg>
