<svg width="32" height="32" viewBox="0 0 32 32" fill="none" xmlns="http://www.w3.org/2000/svg">
<path fill-rule="evenodd" clip-rule="evenodd" d="M8 7H24C25.6443 7 26.987 8.33471 26.9999 9.97605C27.0002 9.98993 27.0003 10.0038 27 10.0177V22C27 23.6523 25.6523 25 24 25H8C6.34772 25 5 23.6523 5 22V10C5 8.34772 6.34772 7 8 7ZM24.8934 9.55399C24.7281 9.22694 24.388 9 24 9H8C7.61206 9 7.27199 9.2269 7.1066 9.5539L16.0001 15.7793L24.8934 9.55399ZM7 11.9206L15.4266 17.8192C15.7709 18.0603 16.2292 18.0603 16.5735 17.8192L25 11.9207V22C25 22.5477 24.5477 23 24 23H8C7.45228 23 7 22.5477 7 22V11.9206Z" fill="black"/>
<mask id="mask0" mask-type="alpha" maskUnits="userSpaceOnUse" x="5" y="7" width="23" height="18">
<path fill-rule="evenodd" clip-rule="evenodd" d="M8 7H24C25.6443 7 26.987 8.33471 26.9999 9.97605C27.0002 9.98993 27.0003 10.0038 27 10.0177V22C27 23.6523 25.6523 25 24 25H8C6.34772 25 5 23.6523 5 22V10C5 8.34772 6.34772 7 8 7ZM24.8934 9.55399C24.7281 9.22694 24.388 9 24 9H8C7.61206 9 7.27199 9.2269 7.1066 9.5539L16.0001 15.7793L24.8934 9.55399ZM7 11.9206L15.4266 17.8192C15.7709 18.0603 16.2292 18.0603 16.5735 17.8192L25 11.9207V22C25 22.5477 24.5477 23 24 23H8C7.45228 23 7 22.5477 7 22V11.9206Z" fill="white"/>
</mask>
<g mask="url(#mask0)">
<rect x="4" y="4" width="24" height="24" fill="#919BB0"/>
</g>
</svg>
