<svg width="50" height="60" viewBox="0 0 50 60" fill="none" xmlns="http://www.w3.org/2000/svg">
<path fill-rule="evenodd" clip-rule="evenodd" d="M36.945 0C29.88 0.285009 24.115 7.69775 24.92 13.8279C31.45 14.3355 37.715 7.01523 36.945 0ZM36.0925 59.9219C42.1525 59.8119 48.035 49.7191 50 44.0189C39.96 39.3263 38.5025 26.5584 47.855 20.4532C44.33 15.298 38.8375 14.593 36.8825 14.5105C34.026 14.2216 31.2544 15.3147 28.9895 16.208C27.5497 16.7759 26.3146 17.2631 25.3925 17.2631C24.3696 17.2631 23.1034 16.7601 21.6818 16.1955C19.8202 15.456 17.6922 14.6108 15.495 14.6505C8.27 14.758 0 20.6407 0 32.5086C0 45.429 9.925 60.2444 16.355 59.9969C18.1191 59.9273 19.374 59.3927 20.6718 58.8398C22.1696 58.2018 23.7245 57.5394 26.185 57.5394C28.5342 57.5394 30.0203 58.1824 31.4489 58.8006C32.8145 59.3916 34.1278 59.9598 36.0925 59.9219Z" fill="#9B9B9B"/>
</svg>
